<svg viewBox="0 0 48.1898 32" xmlns="http://www.w3.org/2000/svg" xmlns:xlink="http://www.w3.org/1999/xlink" width="48.189819" height="32.000000" fill="none" customFrame="#000000">
	<g id="rating">
		<path id="Vector" d="M14.6515 13.2422C14.5553 12.9448 14.2915 12.7335 13.9793 12.7054L9.73947 12.3204L8.06292 8.39623C7.9393 8.10864 7.65776 7.92249 7.34495 7.92249C7.03215 7.92249 6.75061 8.10864 6.62699 8.39691L4.95043 12.3204L0.709893 12.7054C0.398319 12.7342 0.135163 12.9448 0.0384405 13.2422C-0.0582818 13.5397 0.0310434 13.8659 0.266741 14.0716L3.47158 16.8822L2.52655 21.0451C2.45739 21.3512 2.5762 21.6676 2.83016 21.8512C2.96667 21.9498 3.12638 22 3.28744 22C3.4263 22 3.56404 21.9626 3.68766 21.8886L7.34495 19.7028L11.0009 21.8886C11.2684 22.0495 11.6057 22.0349 11.8591 21.8512C12.1131 21.667 12.2318 21.3505 12.1627 21.0451L11.2177 16.8822L14.4225 14.0721C14.6582 13.8659 14.7482 13.5402 14.6515 13.2422Z" fill="rgb(255,193,7)" fill-rule="nonzero" />
		<path id="4.5" d="M30.5746 17.3359L32.0248 17.3359L32.0248 19.3838L30.5746 19.3838L30.5746 22.1523L28.0345 22.1523L28.0345 19.3838L22.7875 19.3838L22.6732 17.7842L28.0082 9.35547L30.5746 9.35547L30.5746 17.3359ZM25.2045 17.3359L28.0345 17.3359L28.0345 12.8184L27.8676 13.1084L25.2045 17.3359ZM33.6332 20.9043C33.6332 20.5 33.7679 20.1719 34.0375 19.9199C34.3129 19.668 34.6556 19.542 35.0658 19.542C35.4818 19.542 35.8246 19.668 36.0941 19.9199C36.3695 20.1719 36.5072 20.5 36.5072 20.9043C36.5072 21.3027 36.3724 21.6279 36.1029 21.8799C35.8334 22.126 35.4877 22.249 35.0658 22.249C34.6498 22.249 34.307 22.126 34.0375 21.8799C33.7679 21.6279 33.6332 21.3027 33.6332 20.9043ZM39.0121 15.8594L39.7504 9.35547L46.9222 9.35547L46.9222 11.4736L41.8334 11.4736L41.517 14.2246C42.1205 13.9023 42.7621 13.7412 43.4418 13.7412C44.6605 13.7412 45.6156 14.1191 46.307 14.875C46.9984 15.6309 47.3441 16.6885 47.3441 18.0479C47.3441 18.874 47.1683 19.6152 46.8168 20.2715C46.4711 20.9219 45.973 21.4287 45.3226 21.792C44.6722 22.1494 43.9047 22.3281 43.0199 22.3281C42.2465 22.3281 41.5287 22.1729 40.8666 21.8623C40.2045 21.5459 39.6801 21.1035 39.2933 20.5352C38.9125 19.9668 38.7103 19.3193 38.6869 18.5928L41.2006 18.5928C41.2533 19.126 41.4379 19.542 41.7543 19.8408C42.0765 20.1338 42.4955 20.2803 43.0111 20.2803C43.5853 20.2803 44.0277 20.0752 44.3383 19.665C44.6488 19.249 44.8041 18.6631 44.8041 17.9072C44.8041 17.1807 44.6254 16.624 44.2679 16.2373C43.9105 15.8506 43.4037 15.6572 42.7474 15.6572C42.1439 15.6572 41.6547 15.8154 41.2797 16.1318L41.0336 16.3604L39.0121 15.8594Z" fill="rgb(255,193,7)" fill-rule="nonzero" />
	</g>
</svg>
