<svg viewBox="0 0 56 22" xmlns="http://www.w3.org/2000/svg" xmlns:xlink="http://www.w3.org/1999/xlink" width="56.000000" height="22.000000" fill="none" customFrame="#000000">
	<defs>
		<clipPath id="clipPath_0">
			<rect width="56.000000" height="22.000000" x="0.000000" y="0.000000" rx="2.000000" fill="rgb(255,255,255)" />
		</clipPath>
	</defs>
	<rect id="tag/basic/default" width="56.000000" height="22.000000" x="0.000000" y="0.000000" fill="rgb(255,255,255)" fill-opacity="0" />
	<g id="master/tag/basic" customFrame="url(#clipPath_0)">
		<rect id="master/tag/basic" width="56.000000" height="22.000000" x="0.000000" y="0.000000" rx="2.000000" fill="rgb(38,38,38)" />
		<path id="50 мин" d="M10.0801 11.041L9.21289 10.8184L9.64062 6.57031L14.0176 6.57031L14.0176 7.57227L10.5605 7.57227L10.3027 9.89258C10.459 9.80273 10.6562 9.71875 10.8945 9.64062C11.1367 9.5625 11.4141 9.52344 11.7266 9.52344C12.1211 9.52344 12.4746 9.5918 12.7871 9.72852C13.0996 9.86133 13.3652 10.0527 13.584 10.3027C13.8066 10.5527 13.9766 10.8535 14.0938 11.2051C14.2109 11.5566 14.2695 11.9492 14.2695 12.3828C14.2695 12.793 14.2129 13.1699 14.0996 13.5137C13.9902 13.8574 13.8242 14.1582 13.6016 14.416C13.3789 14.6699 13.0977 14.8672 12.7578 15.0078C12.4219 15.1484 12.0254 15.2188 11.5684 15.2188C11.2246 15.2188 10.8984 15.1719 10.5898 15.0781C10.2852 14.9805 10.0117 14.834 9.76953 14.6387C9.53125 14.4395 9.33594 14.1934 9.18359 13.9004C9.03516 13.6035 8.94141 13.2559 8.90234 12.8574L9.93359 12.8574C9.98047 13.1777 10.0742 13.4473 10.2148 13.666C10.3555 13.8848 10.5391 14.0508 10.7656 14.1641C10.9961 14.2734 11.2637 14.3281 11.5684 14.3281C11.8262 14.3281 12.0547 14.2832 12.2539 14.1934C12.4531 14.1035 12.6211 13.9746 12.7578 13.8066C12.8945 13.6387 12.998 13.4355 13.0684 13.1973C13.1426 12.959 13.1797 12.6914 13.1797 12.3945C13.1797 12.125 13.1426 11.875 13.0684 11.6445C12.9941 11.4141 12.8828 11.2129 12.7344 11.041C12.5898 10.8691 12.4121 10.7363 12.2012 10.6426C11.9902 10.5449 11.748 10.4961 11.4746 10.4961C11.1113 10.4961 10.8359 10.5449 10.6484 10.6426C10.4648 10.7402 10.2754 10.873 10.0801 11.041ZM20.8145 10.1562L20.8145 11.457C20.8145 12.1562 20.752 12.7461 20.627 13.2266C20.502 13.707 20.3223 14.0938 20.0879 14.3867C19.8535 14.6797 19.5703 14.8926 19.2383 15.0254C18.9102 15.1543 18.5391 15.2188 18.125 15.2188C17.7969 15.2188 17.4941 15.1777 17.2168 15.0957C16.9395 15.0137 16.6895 14.8828 16.4668 14.7031C16.248 14.5195 16.0605 14.2812 15.9043 13.9883C15.748 13.6953 15.6289 13.3398 15.5469 12.9219C15.4648 12.5039 15.4238 12.0156 15.4238 11.457L15.4238 10.1562C15.4238 9.45703 15.4863 8.87109 15.6113 8.39844C15.7402 7.92578 15.9219 7.54688 16.1562 7.26172C16.3906 6.97266 16.6719 6.76562 17 6.64062C17.332 6.51562 17.7031 6.45312 18.1133 6.45312C18.4453 6.45312 18.75 6.49414 19.0273 6.57617C19.3086 6.6543 19.5586 6.78125 19.7773 6.95703C19.9961 7.12891 20.1816 7.35938 20.334 7.64844C20.4902 7.93359 20.6094 8.2832 20.6914 8.69727C20.7734 9.11133 20.8145 9.59766 20.8145 10.1562ZM19.7246 11.6328L19.7246 9.97461C19.7246 9.5918 19.7012 9.25586 19.6543 8.9668C19.6113 8.67383 19.5469 8.42383 19.4609 8.2168C19.375 8.00977 19.2656 7.8418 19.1328 7.71289C19.0039 7.58398 18.8535 7.49023 18.6816 7.43164C18.5137 7.36914 18.3242 7.33789 18.1133 7.33789C17.8555 7.33789 17.627 7.38672 17.4277 7.48438C17.2285 7.57812 17.0605 7.72852 16.9238 7.93555C16.791 8.14258 16.6895 8.41406 16.6191 8.75C16.5488 9.08594 16.5137 9.49414 16.5137 9.97461L16.5137 11.6328C16.5137 12.0156 16.5352 12.3535 16.5781 12.6465C16.625 12.9395 16.6934 13.1934 16.7832 13.4082C16.873 13.6191 16.9824 13.793 17.1113 13.9297C17.2402 14.0664 17.3887 14.168 17.5566 14.2344C17.7285 14.2969 17.918 14.3281 18.125 14.3281C18.3906 14.3281 18.623 14.2773 18.8223 14.1758C19.0215 14.0742 19.1875 13.916 19.3203 13.7012C19.457 13.4824 19.5586 13.2031 19.625 12.8633C19.6914 12.5195 19.7246 12.1094 19.7246 11.6328ZM28.9473 13.6602L31.1035 8.76172L32.1465 8.76172L29.3223 15.1016L28.5723 15.1016L25.7598 8.76172L26.8027 8.76172L28.9473 13.6602ZM26.4863 8.76172L26.4863 15.1016L25.4023 15.1016L25.4023 8.76172L26.4863 8.76172ZM31.373 15.1016L31.373 8.76172L32.4629 8.76172L32.4629 15.1016L31.373 15.1016ZM35.3809 13.3848L38.3047 8.76172L39.3945 8.76172L39.3945 15.1016L38.3047 15.1016L38.3047 10.4785L35.3809 15.1016L34.3027 15.1016L34.3027 8.76172L35.3809 8.76172L35.3809 13.3848ZM45.4355 11.5098L45.4355 12.3887L42.084 12.3887L42.084 11.5098L45.4355 11.5098ZM42.3125 8.76172L42.3125 15.1016L41.2285 15.1016L41.2285 8.76172L42.3125 8.76172ZM46.3145 8.76172L46.3145 15.1016L45.2246 15.1016L45.2246 8.76172L46.3145 8.76172Z" fill="rgb(255,255,255)" fill-rule="nonzero" />
	</g>
</svg>
