<svg width="49" height="32" viewBox="0 0 49 32" fill="none" xmlns="http://www.w3.org/2000/svg">
<path d="M14.6515 13.2422C14.5553 12.9448 14.2915 12.7335 13.9793 12.7054L9.73947 12.3204L8.06292 8.39623C7.9393 8.10864 7.65776 7.92249 7.34495 7.92249C7.03215 7.92249 6.75061 8.10864 6.62699 8.39691L4.95043 12.3204L0.709893 12.7054C0.398319 12.7342 0.135163 12.9448 0.0384405 13.2422C-0.0582818 13.5397 0.0310434 13.8659 0.266741 14.0716L3.47158 16.8822L2.52655 21.0451C2.45739 21.3512 2.5762 21.6676 2.83016 21.8512C2.96667 21.9498 3.12638 22 3.28744 22C3.4263 22 3.56404 21.9626 3.68766 21.8886L7.34495 19.7028L11.0009 21.8886C11.2684 22.0495 11.6057 22.0349 11.8591 21.8512C12.1131 21.667 12.2318 21.3505 12.1627 21.0451L11.2177 16.8822L14.4225 14.0721C14.6582 13.8659 14.7482 13.5402 14.6515 13.2422Z" fill="#FFC107"/>
<path d="M30.5746 17.1836H32.0248V19.2314H30.5746V22H28.0345V19.2314H22.7875L22.6732 17.6318L28.0082 9.20312H30.5746V17.1836ZM25.2045 17.1836H28.0345V12.666L27.8676 12.9561L25.2045 17.1836ZM33.6332 20.752C33.6332 20.3477 33.7679 20.0195 34.0375 19.7676C34.3129 19.5156 34.6556 19.3896 35.0658 19.3896C35.4818 19.3896 35.8246 19.5156 36.0941 19.7676C36.3695 20.0195 36.5072 20.3477 36.5072 20.752C36.5072 21.1504 36.3724 21.4756 36.1029 21.7275C35.8334 21.9736 35.4877 22.0967 35.0658 22.0967C34.6498 22.0967 34.307 21.9736 34.0375 21.7275C33.7679 21.4756 33.6332 21.1504 33.6332 20.752ZM39.0121 15.707L39.7504 9.20312H46.9222V11.3213H41.8334L41.517 14.0723C42.1205 13.75 42.7621 13.5889 43.4418 13.5889C44.6605 13.5889 45.6156 13.9668 46.307 14.7227C46.9984 15.4785 47.3441 16.5361 47.3441 17.8955C47.3441 18.7217 47.1683 19.4629 46.8168 20.1191C46.4711 20.7695 45.973 21.2764 45.3226 21.6396C44.6722 21.9971 43.9047 22.1758 43.0199 22.1758C42.2465 22.1758 41.5287 22.0205 40.8666 21.71C40.2045 21.3936 39.6801 20.9512 39.2933 20.3828C38.9125 19.8145 38.7103 19.167 38.6869 18.4404H41.2006C41.2533 18.9736 41.4379 19.3896 41.7543 19.6885C42.0765 19.9814 42.4955 20.1279 43.0111 20.1279C43.5853 20.1279 44.0277 19.9229 44.3383 19.5127C44.6488 19.0967 44.8041 18.5107 44.8041 17.7549C44.8041 17.0283 44.6254 16.4717 44.2679 16.085C43.9105 15.6982 43.4037 15.5049 42.7474 15.5049C42.1439 15.5049 41.6547 15.6631 41.2797 15.9795L41.0336 16.208L39.0121 15.707Z" fill="#FFC107"/>
</svg>
